<svg width="18" height="18" viewBox="0 0 18 18" fill="none" xmlns="http://www.w3.org/2000/svg">
<path d="M-4.5897e-08 1.05C-3.27836e-08 0.749999 0.0999985 0.499999 0.299999 0.299999C0.5 0.0999992 0.75 -7.54021e-07 1.05 -7.40908e-07L5.1 -5.63877e-07C5.33333 -5.53678e-07 5.53767 0.0749994 5.713 0.224999C5.88833 0.374999 6.00067 0.566666 6.05 0.799999L6.75 4.25C6.78333 4.48333 6.76233 4.721 6.687 4.963C6.61167 5.205 6.49933 5.40067 6.35 5.55L4 7.9C4.76667 9.16667 5.675 10.325 6.725 11.375C7.775 12.425 8.9 13.3 10.1 14L12.55 11.6C12.7 11.45 12.871 11.354 13.063 11.312C13.255 11.27 13.4673 11.266 13.7 11.3L17.2 11.95C17.4333 11.9833 17.625 12.0917 17.775 12.275C17.925 12.4583 18 12.6667 18 12.9L18 16.95C18 17.25 17.9 17.5 17.7 17.7C17.5 17.9 17.25 18 16.95 18C14.8 18 12.704 17.5207 10.662 16.562C8.62 15.6033 6.81167 14.3367 5.237 12.762C3.66233 11.1873 2.39567 9.379 1.437 7.337C0.478334 5.295 -0.000667712 3.19933 -4.5897e-08 1.05Z" fill="white"/>
</svg>
