<svg width="20" height="17" viewBox="0 0 20 17" fill="none" xmlns="http://www.w3.org/2000/svg">
<path d="M17 5H16V2C16 0.9 15.1 0 14 0H8C6.9 0 6 0.9 6 2V16H18C19.1 16 20 15.1 20 14V8C20 6.34 18.66 5 17 5ZM8 2H14V5H8V2ZM12 13H8V8H12V13ZM14 13C13.45 13 13 12.55 13 12C13 11.45 13.45 11 14 11C14.55 11 15 11.45 15 12C15 12.55 14.55 13 14 13ZM14 10C13.45 10 13 9.55 13 9C13 8.45 13.45 8 14 8C14.55 8 15 8.45 15 9C15 9.55 14.55 10 14 10ZM17 13C16.45 13 16 12.55 16 12C16 11.45 16.45 11 17 11C17.55 11 18 11.45 18 12C18 12.55 17.55 13 17 13ZM17 10C16.45 10 16 9.55 16 9C16 8.45 16.45 8 17 8C17.55 8 18 8.45 18 9C18 9.55 17.55 10 17 10ZM2.5 4C1.83696 4 1.20107 4.26339 0.732233 4.73223C0.263392 5.20107 0 5.83696 0 6.5V14.5C0 15.163 0.263392 15.7989 0.732233 16.2678C1.20107 16.7366 1.83696 17 2.5 17C3.16304 17 3.79893 16.7366 4.26777 16.2678C4.73661 15.7989 5 15.163 5 14.5V6.5C5 6.1717 4.93534 5.84661 4.8097 5.54329C4.68406 5.23998 4.49991 4.96438 4.26777 4.73223C4.03562 4.50009 3.76002 4.31594 3.45671 4.1903C3.15339 4.06466 2.8283 4 2.5 4Z" fill="white"/>
</svg>
